<svg xmlns="http://www.w3.org/2000/svg" xmlns:xlink="http://www.w3.org/1999/xlink" width="500" zoomAndPan="magnify" viewBox="0 0 375 149.999998" height="200" preserveAspectRatio="xMidYMid meet" version="1.0"><defs><clipPath id="7f06c7dc72"><path d="M 0 20.273438 L 375 20.273438 L 375 129.773438 L 0 129.773438 Z M 0 20.273438 " clip-rule="nonzero"/></clipPath></defs><g clip-path="url(#7f06c7dc72)"><path fill="#ffce38" d="M -60.429688 24.890625 L -46.539062 53.152344 C -46.066406 54.257812 -44.960938 55.050781 -43.699219 55.207031 L -12.449219 59.785156 C -9.453125 60.257812 -8.1875 64.050781 -10.398438 66.101562 L -32.96875 88.050781 C -33.914062 88.839844 -34.230469 90.101562 -34.070312 91.367188 L -28.707031 122.472656 C -28.230469 125.472656 -31.390625 127.839844 -34.070312 126.417969 L -62.007812 111.734375 C -63.113281 111.101562 -64.375 111.101562 -65.480469 111.734375 L -93.414062 126.417969 C -96.097656 127.839844 -99.253906 125.472656 -98.78125 122.472656 L -93.414062 91.367188 C -93.253906 90.101562 -93.570312 88.996094 -94.519531 88.050781 L -117.085938 66.101562 C -119.296875 63.890625 -118.035156 60.257812 -115.035156 59.785156 L -83.785156 55.207031 C -82.523438 55.050781 -81.578125 54.257812 -80.945312 53.152344 L -67.058594 24.890625 C -65.636719 22.207031 -61.691406 22.207031 -60.429688 24.890625 Z M 58.253906 24.890625 L 44.367188 53.152344 C 43.894531 54.257812 42.789062 55.050781 41.527344 55.207031 L 10.277344 59.785156 C 7.277344 60.257812 6.015625 64.050781 8.226562 66.101562 L 30.792969 88.050781 C 31.742188 88.839844 32.054688 90.101562 31.898438 91.367188 L 26.53125 122.472656 C 26.058594 125.472656 29.214844 127.839844 31.898438 126.417969 L 59.832031 111.734375 C 60.9375 111.101562 62.199219 111.101562 63.304688 111.734375 L 91.238281 126.417969 C 93.921875 127.839844 97.238281 125.472656 96.605469 122.472656 L 91.238281 91.367188 C 91.082031 90.101562 91.398438 88.996094 92.34375 88.050781 L 114.914062 66.101562 C 117.125 63.890625 115.859375 60.257812 112.863281 59.785156 L 81.769531 55.207031 C 80.507812 55.050781 79.5625 54.257812 78.929688 53.152344 L 65.042969 24.890625 C 63.621094 22.207031 59.675781 22.207031 58.253906 24.890625 Z M 221.917969 127.996094 C 223.8125 126.578125 224.757812 124.367188 224.285156 121.996094 L 218.917969 90.890625 C 218.917969 90.417969 218.917969 89.945312 219.234375 89.628906 L 241.960938 67.839844 C 243.699219 66.257812 244.171875 63.734375 243.539062 61.523438 C 242.75 59.3125 240.855469 57.734375 238.648438 57.417969 L 207.398438 52.839844 C 206.925781 52.839844 206.609375 52.523438 206.292969 52.050781 L 192.40625 23.785156 C 191.300781 21.734375 189.25 20.3125 186.882812 20.3125 C 184.515625 20.3125 182.460938 21.574219 181.359375 23.785156 L 167.46875 52.050781 C 167.3125 52.523438 166.835938 52.679688 166.523438 52.839844 L 135.273438 57.417969 C 132.90625 57.734375 131.011719 59.3125 130.378906 61.523438 C 129.589844 63.734375 130.222656 66.101562 131.957031 67.839844 L 154.527344 89.785156 C 154.84375 90.101562 155 90.574219 154.84375 91.050781 L 149.476562 122.15625 C 149.003906 124.523438 149.949219 126.734375 151.84375 128.15625 C 153.738281 129.578125 156.261719 129.734375 158.316406 128.628906 L 186.25 113.945312 C 186.722656 113.785156 187.195312 113.785156 187.511719 113.945312 L 215.449219 128.628906 C 216.394531 129.101562 217.339844 129.261719 218.289062 129.261719 C 219.707031 129.261719 220.972656 128.785156 221.917969 127.996094 Z M 184.199219 109.679688 L 156.261719 124.367188 C 155.632812 124.683594 155 124.367188 154.84375 124.207031 C 154.683594 124.050781 154.210938 123.578125 154.371094 122.945312 L 159.734375 91.839844 C 160.050781 89.785156 159.421875 87.890625 158 86.46875 L 135.429688 64.523438 C 134.957031 64.050781 134.957031 63.417969 135.113281 63.101562 C 135.273438 62.785156 135.429688 62.3125 136.21875 62.15625 L 167.46875 57.574219 C 169.519531 57.257812 171.097656 55.996094 172.046875 54.257812 L 185.933594 25.996094 C 186.25 25.363281 186.882812 25.207031 187.195312 25.207031 C 187.511719 25.207031 188.144531 25.207031 188.460938 25.996094 L 202.347656 54.257812 C 203.296875 55.996094 205.03125 57.257812 206.925781 57.574219 L 238.175781 62.15625 C 238.964844 62.3125 239.121094 62.785156 239.277344 63.101562 C 239.277344 63.417969 239.4375 63.890625 238.964844 64.523438 L 216.394531 86.46875 C 214.972656 87.890625 214.34375 89.945312 214.660156 91.839844 L 220.023438 122.945312 C 220.183594 123.734375 219.707031 124.050781 219.550781 124.207031 C 219.394531 124.367188 218.761719 124.683594 218.128906 124.367188 L 190.195312 109.679688 C 189.25 109.207031 188.300781 109.050781 187.355469 109.050781 C 186.40625 109.050781 185.144531 109.207031 184.199219 109.679688 Z M 283.941406 128.472656 L 311.878906 113.785156 C 312.351562 113.628906 312.824219 113.628906 313.140625 113.785156 L 341.074219 128.472656 C 343.125 129.578125 345.652344 129.417969 347.546875 127.996094 C 349.441406 126.578125 350.386719 124.367188 349.914062 121.996094 L 344.546875 90.890625 C 344.546875 90.417969 344.546875 89.945312 344.863281 89.628906 L 367.433594 67.839844 C 369.167969 66.257812 369.640625 63.734375 369.011719 61.523438 C 368.222656 59.3125 366.328125 57.734375 364.117188 57.417969 L 332.867188 52.839844 C 332.394531 52.839844 332.078125 52.523438 331.761719 52.050781 L 317.875 23.785156 C 316.769531 21.734375 314.71875 20.3125 312.351562 20.3125 C 309.984375 20.3125 307.933594 21.574219 306.828125 23.785156 L 292.9375 52.050781 C 292.78125 52.523438 292.308594 52.679688 291.835938 52.839844 L 260.585938 57.417969 C 258.21875 57.734375 256.324219 59.3125 255.691406 61.523438 C 255.0625 63.734375 255.535156 66.101562 257.269531 67.839844 L 279.839844 89.785156 C 280.15625 90.101562 280.3125 90.574219 280.15625 91.050781 L 274.789062 122.15625 C 274.316406 124.523438 275.261719 126.734375 277.15625 128.15625 C 278.261719 128.945312 279.523438 129.261719 280.785156 129.261719 C 282.050781 129.261719 282.996094 128.945312 283.941406 128.472656 Z M 309.511719 109.679688 L 281.574219 124.367188 C 280.945312 124.683594 280.3125 124.367188 280.15625 124.207031 C 279.996094 124.050781 279.523438 123.578125 279.683594 122.945312 L 285.046875 91.839844 C 285.363281 89.785156 284.730469 87.890625 283.3125 86.46875 L 260.742188 64.523438 C 260.269531 64.050781 260.269531 63.417969 260.425781 63.101562 C 260.585938 62.785156 260.742188 62.3125 261.53125 62.15625 L 292.78125 57.574219 C 294.832031 57.257812 296.410156 55.996094 297.359375 54.257812 L 311.246094 25.996094 C 311.5625 25.363281 312.195312 25.207031 312.507812 25.207031 C 312.824219 25.207031 313.457031 25.207031 313.773438 25.996094 L 327.660156 54.257812 C 328.605469 55.996094 330.34375 57.257812 332.238281 57.574219 L 363.484375 62.15625 C 364.273438 62.3125 364.433594 62.785156 364.589844 63.101562 C 364.589844 63.417969 364.75 63.890625 364.273438 64.523438 L 341.707031 86.46875 C 340.285156 87.890625 339.65625 89.945312 339.96875 91.839844 L 345.335938 122.945312 C 345.492188 123.734375 345.019531 124.050781 344.863281 124.207031 C 344.703125 124.367188 344.074219 124.683594 343.441406 124.367188 L 315.507812 109.679688 C 314.5625 109.207031 313.613281 109.050781 312.667969 109.050781 C 311.71875 109.050781 310.457031 109.207031 309.511719 109.679688 Z M 409.253906 128.472656 L 437.191406 113.785156 C 437.664062 113.628906 438.136719 113.628906 438.453125 113.785156 L 466.386719 128.472656 C 468.4375 129.578125 470.964844 129.417969 472.859375 127.996094 C 474.75 126.578125 475.699219 124.367188 475.226562 121.996094 L 469.859375 90.890625 C 469.859375 90.417969 469.859375 89.945312 470.175781 89.628906 L 492.742188 67.839844 C 494.480469 66.257812 494.953125 63.734375 494.320312 61.523438 C 493.53125 59.3125 491.640625 57.734375 489.429688 57.417969 L 458.179688 52.839844 C 457.707031 52.839844 457.390625 52.523438 457.074219 52.050781 L 443.1875 23.785156 C 442.082031 21.734375 440.03125 20.3125 437.664062 20.3125 C 435.296875 20.3125 433.246094 21.574219 432.140625 23.785156 L 418.410156 52.207031 C 418.25 52.679688 417.777344 52.839844 417.304688 52.996094 L 386.054688 57.574219 C 383.6875 57.890625 381.792969 59.46875 381.164062 61.679688 C 380.53125 63.890625 381.003906 66.257812 382.742188 67.996094 L 405.308594 89.945312 C 405.625 90.261719 405.78125 90.734375 405.625 91.207031 L 400.257812 122.3125 C 399.785156 124.683594 400.734375 126.890625 402.625 128.3125 C 403.730469 129.101562 404.992188 129.417969 406.257812 129.417969 C 407.359375 129.261719 408.308594 128.945312 409.253906 128.472656 Z M 434.980469 109.679688 L 407.046875 124.367188 C 406.414062 124.683594 405.78125 124.367188 405.625 124.207031 C 405.46875 124.050781 404.992188 123.578125 405.152344 122.945312 L 410.519531 91.839844 C 410.832031 89.785156 410.203125 87.890625 408.78125 86.46875 L 386.210938 64.523438 C 385.738281 64.050781 385.738281 63.417969 385.898438 63.101562 C 385.898438 62.785156 386.210938 62.3125 387 62.15625 L 418.25 57.574219 C 420.300781 57.257812 421.882812 55.996094 422.828125 54.257812 L 436.714844 25.996094 C 437.03125 25.363281 437.664062 25.207031 437.980469 25.207031 C 438.292969 25.207031 438.925781 25.207031 439.242188 25.996094 L 453.128906 54.257812 C 454.078125 55.996094 455.8125 57.257812 457.707031 57.574219 L 488.957031 62.15625 C 489.746094 62.3125 489.902344 62.785156 490.0625 63.101562 C 490.0625 63.417969 490.21875 63.890625 489.746094 64.523438 L 467.175781 86.46875 C 465.753906 87.890625 465.125 89.945312 465.441406 91.839844 L 470.804688 122.945312 C 470.964844 123.734375 470.492188 124.050781 470.332031 124.207031 C 470.175781 124.367188 469.542969 124.683594 468.914062 124.367188 L 440.976562 109.679688 C 440.03125 109.207031 439.082031 109.050781 438.136719 109.050781 C 437.191406 109.050781 435.769531 109.207031 434.980469 109.679688 Z M 434.980469 109.679688 " fill-opacity="1" fill-rule="nonzero"/></g></svg>