<svg xmlns="http://www.w3.org/2000/svg" xmlns:xlink="http://www.w3.org/1999/xlink" width="500" zoomAndPan="magnify" viewBox="0 0 375 149.999998" height="200" preserveAspectRatio="xMidYMid meet" version="1.0"><path fill="#ffce38" d="M 60.316406 23.691406 L 74.546875 52.722656 C 75.03125 53.859375 76.164062 54.667969 77.457031 54.832031 L 109.476562 59.535156 C 112.546875 60.019531 113.84375 63.914062 111.578125 66.023438 L 88.453125 88.566406 C 87.484375 89.378906 87.160156 90.675781 87.320312 91.972656 L 92.820312 123.921875 C 93.304688 127.003906 90.070312 129.4375 87.320312 127.976562 L 58.699219 112.894531 C 57.566406 112.246094 56.273438 112.246094 55.140625 112.894531 L 26.519531 127.976562 C 23.769531 129.4375 20.535156 127.003906 21.023438 123.921875 L 26.519531 91.972656 C 26.683594 90.675781 26.359375 89.539062 25.386719 88.566406 L 2.265625 66.023438 C 0 63.75 1.292969 60.019531 4.367188 59.535156 L 36.382812 54.832031 C 37.679688 54.667969 38.648438 53.859375 39.296875 52.722656 L 53.523438 23.691406 C 54.980469 20.933594 59.023438 20.933594 60.316406 23.691406 Z M 181.921875 23.691406 L 167.691406 52.722656 C 167.207031 53.859375 166.074219 54.667969 164.78125 54.832031 L 132.761719 59.535156 C 129.691406 60.019531 128.394531 63.914062 130.660156 66.023438 L 153.785156 88.566406 C 154.753906 89.378906 155.078125 90.675781 154.917969 91.972656 L 149.417969 123.921875 C 148.933594 127.003906 152.167969 129.4375 154.917969 127.976562 L 183.539062 112.894531 C 184.671875 112.246094 185.964844 112.246094 187.097656 112.894531 L 215.71875 127.976562 C 218.46875 129.4375 221.863281 127.003906 221.214844 123.921875 L 215.71875 91.972656 C 215.554688 90.675781 215.878906 89.539062 216.851562 88.566406 L 239.972656 66.023438 C 242.238281 63.75 240.945312 60.019531 237.871094 59.535156 L 205.855469 54.832031 C 204.558594 54.667969 203.589844 53.859375 202.941406 52.722656 L 188.714844 23.691406 C 187.417969 20.933594 183.375 20.933594 181.921875 23.691406 Z M 310.480469 23.691406 L 296.25 52.722656 C 295.765625 53.859375 294.632812 54.667969 293.339844 54.832031 L 261.320312 59.535156 C 258.246094 60.019531 256.953125 63.914062 259.21875 66.023438 L 282.34375 88.566406 C 283.3125 89.378906 283.636719 90.675781 283.472656 91.972656 L 277.976562 123.921875 C 277.492188 127.003906 280.726562 129.4375 283.472656 127.976562 L 312.097656 112.894531 C 313.226562 112.246094 314.523438 112.246094 315.652344 112.894531 L 344.277344 127.976562 C 347.023438 129.4375 350.421875 127.003906 349.773438 123.921875 L 344.277344 91.972656 C 344.113281 90.675781 344.4375 89.539062 345.40625 88.566406 L 368.53125 66.023438 C 370.796875 63.75 369.503906 60.019531 366.429688 59.535156 L 334.410156 54.832031 C 333.117188 54.667969 332.148438 53.859375 331.5 52.722656 L 317.269531 23.691406 C 315.816406 20.933594 311.773438 20.933594 310.480469 23.691406 Z M 438.875 23.691406 L 424.644531 52.722656 C 424.160156 53.859375 423.027344 54.667969 421.734375 54.832031 L 389.714844 59.535156 C 386.644531 60.019531 385.351562 63.914062 387.613281 66.023438 L 410.738281 88.566406 C 411.707031 89.378906 412.03125 90.675781 411.871094 91.972656 L 406.371094 123.921875 C 405.886719 127.003906 409.121094 129.4375 411.871094 127.976562 L 440.492188 112.894531 C 441.625 112.246094 442.917969 112.246094 444.050781 112.894531 L 472.671875 127.976562 C 475.421875 129.4375 478.816406 127.003906 478.171875 123.921875 L 472.671875 91.972656 C 472.511719 90.675781 472.832031 89.539062 473.804688 88.566406 L 496.929688 66.023438 C 499.191406 63.75 497.898438 60.019531 494.828125 59.535156 L 462.808594 54.832031 C 461.515625 54.667969 460.542969 53.859375 459.898438 52.722656 L 445.667969 23.691406 C 444.375 20.933594 440.332031 20.933594 438.875 23.691406 Z M 567.433594 23.691406 L 553.203125 52.722656 C 552.71875 53.859375 551.585938 54.667969 550.292969 54.832031 L 518.273438 59.535156 C 515.203125 60.019531 513.90625 63.914062 516.171875 66.023438 L 539.296875 88.566406 C 540.265625 89.378906 540.589844 90.675781 540.429688 91.972656 L 534.929688 123.921875 C 534.445312 127.003906 537.679688 129.4375 540.429688 127.976562 L 569.050781 112.894531 C 570.183594 112.246094 571.476562 112.246094 572.609375 112.894531 L 601.230469 127.976562 C 603.980469 129.4375 607.375 127.003906 606.726562 123.921875 L 601.230469 91.972656 C 601.066406 90.675781 601.390625 89.539062 602.363281 88.566406 L 625.484375 66.023438 C 627.75 63.75 626.457031 60.019531 623.382812 59.535156 L 591.367188 54.832031 C 590.070312 54.667969 589.101562 53.859375 588.453125 52.722656 L 574.226562 23.691406 C 572.769531 20.933594 568.726562 20.933594 567.433594 23.691406 Z M 567.433594 23.691406 " fill-opacity="1" fill-rule="nonzero"/></svg>