<svg xmlns="http://www.w3.org/2000/svg" xmlns:xlink="http://www.w3.org/1999/xlink" width="500" zoomAndPan="magnify" viewBox="0 0 375 149.999998" height="200" preserveAspectRatio="xMidYMid meet" version="1.0"><defs><clipPath id="2a3e1e6ea4"><path d="M 2 19.363281 L 374.003906 19.363281 L 374.003906 130 L 2 130 Z M 2 19.363281 " clip-rule="nonzero"/></clipPath></defs><g clip-path="url(#2a3e1e6ea4)"><path fill="#ffce38" d="M 61.128906 23.960938 L 75.257812 52.613281 C 75.738281 53.730469 76.859375 54.53125 78.144531 54.691406 L 109.929688 59.335938 C 112.980469 59.8125 114.261719 63.65625 112.015625 65.738281 L 89.0625 87.984375 C 88.097656 88.785156 87.777344 90.066406 87.9375 91.347656 L 93.394531 122.878906 C 93.875 125.921875 90.667969 128.324219 87.9375 126.882812 L 59.523438 111.996094 C 58.402344 111.355469 57.117188 111.355469 55.992188 111.996094 L 27.582031 126.882812 C 24.851562 128.324219 21.640625 125.921875 22.125 122.878906 L 27.582031 91.347656 C 27.742188 90.066406 27.421875 88.945312 26.457031 87.984375 L 3.503906 65.738281 C 1.253906 63.496094 2.539062 59.8125 5.589844 59.335938 L 37.371094 54.691406 C 38.65625 54.53125 39.621094 53.730469 40.261719 52.613281 L 54.386719 23.960938 C 55.832031 21.238281 59.847656 21.238281 61.128906 23.960938 Z M 181.84375 23.960938 L 167.714844 52.613281 C 167.234375 53.730469 166.109375 54.53125 164.828125 54.691406 L 133.042969 59.335938 C 129.992188 59.8125 128.710938 63.65625 130.957031 65.738281 L 153.910156 87.984375 C 154.875 88.785156 155.195312 90.066406 155.035156 91.347656 L 149.578125 122.878906 C 149.097656 125.921875 152.304688 128.324219 155.035156 126.882812 L 183.449219 111.996094 C 184.570312 111.355469 185.855469 111.355469 186.980469 111.996094 L 215.390625 126.882812 C 218.121094 128.324219 221.492188 125.921875 220.847656 122.878906 L 215.390625 91.347656 C 215.230469 90.066406 215.550781 88.945312 216.515625 87.984375 L 239.46875 65.738281 C 241.71875 63.496094 240.433594 59.8125 237.382812 59.335938 L 205.761719 54.691406 C 204.476562 54.53125 203.511719 53.730469 202.871094 52.613281 L 188.746094 23.960938 C 187.300781 21.238281 183.285156 21.238281 181.84375 23.960938 Z M 348.304688 128.484375 C 350.230469 127.042969 351.191406 124.800781 350.710938 122.398438 L 345.253906 90.867188 C 345.253906 90.386719 345.253906 89.90625 345.574219 89.585938 L 368.6875 67.496094 C 370.457031 65.898438 370.9375 63.335938 370.292969 61.09375 C 369.492188 58.855469 367.566406 57.253906 365.320312 56.933594 L 333.535156 52.292969 C 333.054688 52.292969 332.734375 51.972656 332.410156 51.492188 L 318.285156 22.839844 C 317.160156 20.757812 315.074219 19.316406 312.667969 19.316406 C 310.257812 19.316406 308.171875 20.597656 307.050781 22.839844 L 292.921875 51.492188 C 292.761719 51.972656 292.28125 52.132812 291.960938 52.292969 L 260.175781 56.933594 C 257.769531 57.253906 255.84375 58.855469 255.199219 61.09375 C 254.398438 63.335938 255.039062 65.738281 256.804688 67.496094 L 279.761719 89.746094 C 280.082031 90.066406 280.242188 90.546875 280.082031 91.027344 L 274.625 122.558594 C 274.140625 124.960938 275.105469 127.203125 277.03125 128.644531 C 278.957031 130.082031 281.527344 130.242188 283.613281 129.121094 L 312.023438 114.238281 C 312.507812 114.078125 312.988281 114.078125 313.308594 114.238281 L 341.722656 129.121094 C 342.683594 129.601562 343.648438 129.761719 344.609375 129.761719 C 346.054688 129.761719 347.339844 129.28125 348.304688 128.484375 Z M 309.9375 109.914062 L 281.527344 124.800781 C 280.882812 125.121094 280.242188 124.800781 280.082031 124.640625 C 279.921875 124.480469 279.441406 124 279.601562 123.359375 L 285.058594 91.828125 C 285.378906 89.746094 284.738281 87.824219 283.292969 86.386719 L 260.335938 64.136719 C 259.855469 63.65625 259.855469 63.015625 260.015625 62.695312 C 260.175781 62.375 260.335938 61.894531 261.140625 61.734375 L 292.921875 57.09375 C 295.011719 56.773438 296.617188 55.492188 297.578125 53.730469 L 311.703125 25.078125 C 312.023438 24.441406 312.667969 24.28125 312.988281 24.28125 C 313.308594 24.28125 313.953125 24.28125 314.273438 25.078125 L 328.398438 53.730469 C 329.363281 55.492188 331.128906 56.773438 333.054688 57.09375 L 364.835938 61.734375 C 365.640625 61.894531 365.800781 62.375 365.960938 62.695312 C 365.960938 63.015625 366.121094 63.496094 365.640625 64.136719 L 342.683594 86.386719 C 341.242188 87.824219 340.597656 89.90625 340.917969 91.828125 L 346.375 123.359375 C 346.539062 124.160156 346.054688 124.480469 345.894531 124.640625 C 345.734375 124.800781 345.09375 125.121094 344.449219 124.800781 L 316.039062 109.914062 C 315.074219 109.433594 314.113281 109.273438 313.148438 109.273438 C 312.1875 109.273438 310.902344 109.433594 309.9375 109.914062 Z M 411.386719 128.960938 L 439.800781 114.078125 C 440.28125 113.917969 440.761719 113.917969 441.085938 114.078125 L 469.496094 128.960938 C 471.582031 130.082031 474.152344 129.921875 476.078125 128.484375 C 478.003906 127.042969 478.96875 124.800781 478.484375 122.398438 L 473.027344 90.867188 C 473.027344 90.386719 473.027344 89.90625 473.347656 89.585938 L 496.304688 67.496094 C 498.070312 65.898438 498.550781 63.335938 497.910156 61.09375 C 497.105469 58.855469 495.179688 57.253906 492.933594 56.933594 L 461.148438 52.292969 C 460.667969 52.292969 460.347656 51.972656 460.027344 51.492188 L 445.898438 22.839844 C 444.777344 20.757812 442.691406 19.316406 440.28125 19.316406 C 437.875 19.316406 435.789062 20.597656 434.664062 22.839844 L 420.539062 51.492188 C 420.378906 51.972656 419.894531 52.132812 419.414062 52.292969 L 387.632812 56.933594 C 385.222656 57.253906 383.296875 58.855469 382.65625 61.09375 C 382.011719 63.335938 382.496094 65.738281 384.261719 67.496094 L 407.214844 89.746094 C 407.535156 90.066406 407.695312 90.546875 407.535156 91.027344 L 402.078125 122.558594 C 401.597656 124.960938 402.558594 127.203125 404.484375 128.644531 C 405.609375 129.441406 406.894531 129.761719 408.179688 129.761719 C 409.460938 129.761719 410.425781 129.441406 411.386719 128.960938 Z M 437.394531 109.914062 L 408.980469 124.800781 C 408.339844 125.121094 407.695312 124.800781 407.535156 124.640625 C 407.375 124.480469 406.894531 124 407.054688 123.359375 L 412.511719 91.828125 C 412.832031 89.746094 412.191406 87.824219 410.746094 86.386719 L 387.792969 64.136719 C 387.308594 63.65625 387.308594 63.015625 387.46875 62.695312 C 387.632812 62.375 387.792969 61.894531 388.59375 61.734375 L 420.378906 57.09375 C 422.464844 56.773438 424.070312 55.492188 425.03125 53.730469 L 439.160156 25.078125 C 439.480469 24.441406 440.121094 24.28125 440.441406 24.28125 C 440.761719 24.28125 441.40625 24.28125 441.726562 25.078125 L 455.851562 53.730469 C 456.816406 55.492188 458.582031 56.773438 460.507812 57.09375 L 492.289062 61.734375 C 493.09375 61.894531 493.253906 62.375 493.414062 62.695312 C 493.414062 63.015625 493.574219 63.496094 493.09375 64.136719 L 470.140625 86.386719 C 468.695312 87.824219 468.050781 89.90625 468.375 91.828125 L 473.832031 123.359375 C 473.992188 124.160156 473.511719 124.480469 473.347656 124.640625 C 473.1875 124.800781 472.546875 125.121094 471.90625 124.800781 L 443.492188 109.914062 C 442.527344 109.433594 441.566406 109.273438 440.601562 109.273438 C 439.640625 109.273438 438.355469 109.433594 437.394531 109.914062 Z M 538.84375 128.960938 L 567.253906 114.078125 C 567.734375 113.917969 568.21875 113.917969 568.539062 114.078125 L 596.949219 128.960938 C 599.039062 130.082031 601.605469 129.921875 603.53125 128.484375 C 605.457031 127.042969 606.421875 124.800781 605.941406 122.398438 L 600.484375 90.867188 C 600.484375 90.386719 600.484375 89.90625 600.804688 89.585938 L 623.757812 67.496094 C 625.523438 65.898438 626.003906 63.335938 625.363281 61.09375 C 624.5625 58.855469 622.632812 57.253906 620.386719 56.933594 L 588.605469 52.292969 C 588.121094 52.292969 587.800781 51.972656 587.480469 51.492188 L 573.355469 22.839844 C 572.230469 20.757812 570.144531 19.316406 567.734375 19.316406 C 565.328125 19.316406 563.242188 20.597656 562.117188 22.839844 L 548.152344 51.652344 C 547.992188 52.132812 547.511719 52.292969 547.027344 52.453125 L 515.246094 57.09375 C 512.835938 57.414062 510.910156 59.015625 510.269531 61.253906 C 509.628906 63.496094 510.109375 65.898438 511.875 67.65625 L 534.828125 89.90625 C 535.148438 90.226562 535.3125 90.707031 535.148438 91.1875 L 529.691406 122.71875 C 529.210938 125.121094 530.175781 127.363281 532.101562 128.800781 C 533.222656 129.601562 534.507812 129.921875 535.792969 129.921875 C 536.917969 129.761719 537.878906 129.441406 538.84375 128.960938 Z M 565.007812 109.914062 L 536.59375 124.800781 C 535.953125 125.121094 535.3125 124.800781 535.148438 124.640625 C 534.988281 124.480469 534.507812 124 534.667969 123.359375 L 540.125 91.828125 C 540.449219 89.746094 539.804688 87.824219 538.359375 86.386719 L 515.40625 64.136719 C 514.925781 63.65625 514.925781 63.015625 515.085938 62.695312 C 515.085938 62.375 515.40625 61.894531 516.207031 61.734375 L 547.992188 57.09375 C 550.078125 56.773438 551.683594 55.492188 552.648438 53.730469 L 566.773438 25.078125 C 567.09375 24.441406 567.734375 24.28125 568.058594 24.28125 C 568.378906 24.28125 569.019531 24.28125 569.339844 25.078125 L 583.46875 53.730469 C 584.429688 55.492188 586.195312 56.773438 588.121094 57.09375 L 619.90625 61.734375 C 620.707031 61.894531 620.867188 62.375 621.027344 62.695312 C 621.027344 63.015625 621.191406 63.496094 620.707031 64.136719 L 597.753906 86.386719 C 596.308594 87.824219 595.667969 89.90625 595.988281 91.828125 L 601.445312 123.359375 C 601.605469 124.160156 601.125 124.480469 600.964844 124.640625 C 600.804688 124.800781 600.160156 125.121094 599.519531 124.800781 L 571.105469 109.914062 C 570.144531 109.433594 569.179688 109.273438 568.21875 109.273438 C 567.253906 109.273438 565.808594 109.433594 565.007812 109.914062 Z M 565.007812 109.914062 " fill-opacity="1" fill-rule="nonzero"/></g></svg>